<svg width="17" height="16" viewBox="0 0 17 16" fill="none" xmlns="http://www.w3.org/2000/svg">
<path d="M8.75667 3.8978C6.49008 3.89066 4.64825 5.72576 4.64111 7.99286C4.63397 10.26 6.46866 12.1022 8.73525 12.1093C11.0018 12.1165 12.8437 10.2814 12.8508 8.01428C12.858 5.74718 11.0233 3.90494 8.75667 3.8978ZM8.73525 5.34018C10.2059 5.33304 11.4016 6.52192 11.4088 7.99286C11.4159 9.4638 10.2273 10.6598 8.75667 10.667C7.28606 10.6741 6.0903 9.48522 6.08316 8.01428C6.07602 6.54334 7.26464 5.34732 8.73525 5.34018ZM12.0691 3.73C12.0691 3.20161 12.4974 2.77318 13.0257 2.77318C13.554 2.77318 13.9823 3.20161 13.9823 3.73C13.9823 4.2584 13.554 4.68682 13.0257 4.68682C12.4974 4.68682 12.0691 4.2584 12.0691 3.73ZM16.6987 4.7011C16.638 3.41939 16.3453 2.28406 15.4065 1.34866C14.4713 0.413255 13.3363 0.120495 12.0548 0.0562312C10.7341 -0.0187437 6.77563 -0.0187437 5.45494 0.0562312C4.17708 0.116925 3.042 0.409684 2.10324 1.34509C1.16448 2.28049 0.875351 3.41582 0.811101 4.69753C0.736143 6.01852 0.736143 9.97791 0.811101 11.2989C0.871782 12.5806 1.16448 13.7159 2.10324 14.6513C3.042 15.5867 4.17351 15.8795 5.45494 15.9438C6.77563 16.0187 10.7341 16.0187 12.0548 15.9438C13.3363 15.8831 14.4713 15.5903 15.4065 14.6513C16.3417 13.7159 16.6344 12.5806 16.6987 11.2989C16.7736 9.97791 16.7736 6.02209 16.6987 4.7011ZM14.9925 12.7163C14.7141 13.416 14.1751 13.9551 13.4719 14.2372C12.4189 14.6549 9.9203 14.5585 8.75667 14.5585C7.59303 14.5585 5.09086 14.6513 4.04144 14.2372C3.34183 13.9587 2.80285 13.4196 2.52086 12.7163C2.10324 11.6631 2.19961 9.1639 2.19961 8C2.19961 6.8361 2.10681 4.33337 2.52086 3.28372C2.79928 2.58396 3.33826 2.04485 4.04144 1.7628C5.09443 1.34509 7.59303 1.44148 8.75667 1.44148C9.9203 1.44148 12.4225 1.34866 13.4719 1.7628C14.1715 2.04128 14.7105 2.58039 14.9925 3.28372C15.4101 4.33694 15.3137 6.8361 15.3137 8C15.3137 9.1639 15.4101 11.6666 14.9925 12.7163Z" fill="white"/>
</svg>
