<svg width="15" height="17" viewBox="0 0 15 17" fill="none" xmlns="http://www.w3.org/2000/svg">
<path d="M14.7663 7.0604C13.3916 7.06352 12.0482 6.63533 10.9297 5.83521V11.4205C10.9297 12.455 10.6141 13.4645 10.0236 14.3147C9.43315 15.1648 8.59897 15.8149 7.63044 16.1774C6.66192 16.54 5.60591 16.5994 4.60302 16.3431C3.60012 16.0868 2.70033 15.5336 2.01924 14.7553C1.33815 13.9771 0.916372 13.0051 0.800774 11.9768C0.685176 10.9485 0.891378 9.91084 1.38189 9.00133C1.8724 8.09181 2.6316 7.35419 3.55639 6.88537C4.48117 6.41655 5.52155 6.24465 6.54632 6.38529V9.19511C6.07768 9.04821 5.57467 9.05133 5.10915 9.20761C4.64363 9.36388 4.23748 9.66393 3.95317 10.0609C3.66886 10.4578 3.51577 10.9391 3.51889 11.433C3.52202 11.9268 3.68136 12.4019 3.97191 12.7988C4.26247 13.1957 4.67175 13.4895 5.14039 13.6395C5.60903 13.7896 6.11204 13.7896 6.57756 13.6364C7.04308 13.4833 7.45236 13.1864 7.73979 12.7894C8.02722 12.3925 8.18344 11.9112 8.18344 11.4205V0.5H10.9328C10.9297 0.731286 10.9515 0.965697 10.9922 1.19386C11.089 1.70331 11.2858 2.19089 11.5764 2.62221C11.867 3.05352 12.2419 3.42233 12.6761 3.70362C13.2979 4.11306 14.0258 4.33185 14.7694 4.33185V7.06352L14.7663 7.0604Z" fill="white"/>
</svg>
