<svg width="17" height="17" viewBox="0 0 17 17" fill="none" xmlns="http://www.w3.org/2000/svg">
<path d="M14.3536 3.075C12.8571 1.575 10.8643 0.75 8.74643 0.75C4.375 0.75 0.817857 4.30714 0.817857 8.67857C0.817857 10.075 1.18214 11.4393 1.875 12.6429L0.75 16.75L4.95357 15.6464C6.11071 16.2786 7.41429 16.6107 8.74286 16.6107H8.74643C13.1143 16.6107 16.75 13.0536 16.75 8.68214C16.75 6.56429 15.85 4.575 14.3536 3.075ZM8.74643 15.275C7.56071 15.275 6.4 14.9571 5.38929 14.3571L5.15 14.2143L2.65714 14.8679L3.32143 12.4357L3.16429 12.1857C2.50357 11.1357 2.15714 9.925 2.15714 8.67857C2.15714 5.04643 5.11429 2.08929 8.75 2.08929C10.5107 2.08929 12.1643 2.775 13.4071 4.02143C14.65 5.26786 15.4143 6.92143 15.4107 8.68214C15.4107 12.3179 12.3786 15.275 8.74643 15.275ZM12.3607 10.3393C12.1643 10.2393 11.1893 9.76071 11.0071 9.69643C10.825 9.62857 10.6929 9.59643 10.5607 9.79643C10.4286 9.99643 10.05 10.4393 9.93214 10.575C9.81786 10.7071 9.7 10.725 9.50357 10.625C8.33929 10.0429 7.575 9.58571 6.80714 8.26786C6.60357 7.91786 7.01071 7.94286 7.38929 7.18572C7.45357 7.05357 7.42143 6.93929 7.37143 6.83929C7.32143 6.73929 6.925 5.76429 6.76071 5.36786C6.6 4.98214 6.43571 5.03571 6.31429 5.02857C6.2 5.02143 6.06786 5.02143 5.93571 5.02143C5.80357 5.02143 5.58929 5.07143 5.40714 5.26786C5.225 5.46786 4.71429 5.94643 4.71429 6.92143C4.71429 7.89643 5.425 8.83929 5.52143 8.97143C5.62143 9.10357 6.91786 11.1036 8.90714 11.9643C10.1643 12.5071 10.6571 12.5536 11.2857 12.4607C11.6679 12.4036 12.4571 11.9821 12.6214 11.5179C12.7857 11.0536 12.7857 10.6571 12.7357 10.575C12.6893 10.4857 12.5571 10.4357 12.3607 10.3393Z" fill="white"/>
</svg>
